<?xml version="1.0" encoding="UTF-8"?>
<svg width="13px" height="13px" viewBox="0 0 13 13" version="1.1" xmlns="http://www.w3.org/2000/svg" xmlns:xlink="http://www.w3.org/1999/xlink">
    <title>Group 3</title>
    <g id="Page-1" stroke="none" stroke-width="1" fill="none" fill-rule="evenodd">
        <g id="Group-3" transform="translate(0.178696, 0.500000)">
            <path d="M4.542075,6 C4.542075,5.19462083 5.19479583,4.54155 6.000175,4.54155 C6.80555417,4.54155 7.458625,5.19462083 7.458625,6 C7.458625,6.80537917 6.80555417,7.45845 6.000175,7.45845 C5.19479583,7.45845 4.542075,6.80537917 4.542075,6 Z M3.75367083,6 C3.75367083,7.24075 4.759425,8.24650417 6.000175,8.24650417 C7.240925,8.24650417 8.24667917,7.24075 8.24667917,6 C8.24667917,4.75925 7.240925,3.75349583 6.000175,3.75349583 C4.759425,3.75349583 3.75367083,4.75925 3.75367083,6 Z M7.81060831,3.66442083 C7.81057917,3.76825417 7.84132083,3.86975417 7.89898333,3.95611667 C7.95664583,4.04247917 8.03860417,4.10979583 8.13450417,4.14957917 C8.23043333,4.1893625 8.3359875,4.19980417 8.4378375,4.17959167 C8.5396875,4.15935 8.63325417,4.1093875 8.70669583,4.03600417 C8.78016667,3.96262083 8.8301875,3.86908333 8.8504875,3.7672625 C8.8707875,3.6654125 8.86043333,3.55985833 8.8207375,3.4639 C8.78104167,3.36797083 8.71378333,3.28595417 8.62747917,3.22823333 C8.54114583,3.1705125 8.439675,3.13965417 8.33584167,3.139625 L8.33560833,3.139625 C8.196425,3.13968333 8.06295833,3.19498333 7.96452083,3.29339167 C7.86608333,3.3918 7.810725,3.5252375 7.81060831,3.66442083 Z M4.232675,9.56113333 C3.80614167,9.54170833 3.57429583,9.47065833 3.42020833,9.41063333 C3.21595417,9.331125 3.07020833,9.23642083 2.91699583,9.08338333 C2.76375417,8.930375 2.66890417,8.784775 2.58974583,8.58052083 C2.52969167,8.42652083 2.45864167,8.19461667 2.43924583,7.76805417 C2.41804167,7.3069 2.41378333,7.16835833 2.41378333,6.00002917 C2.41378333,4.8317 2.41839167,4.69356667 2.43924583,4.23200417 C2.45867083,3.80547083 2.53024583,3.57400417 2.58974583,3.41956667 C2.66925417,3.21528333 2.76395833,3.06956667 2.91699583,2.916325 C3.07000417,2.76308333 3.21560417,2.66823333 3.42020833,2.589075 C3.57420833,2.52902083 3.80614167,2.45797083 4.232675,2.438575 C4.69382917,2.41737083 4.83237083,2.41314167 6.000175,2.41314167 C7.16797917,2.41314167 7.30666667,2.41772083 7.7682,2.438575 C8.19473333,2.458 8.4262,2.529575 8.58066667,2.589075 C8.78492083,2.66823333 8.93066667,2.76331667 9.08387917,2.916325 C9.23712083,3.06933333 9.33162083,3.21528333 9.41112917,3.41956667 C9.47118333,3.57356667 9.54223333,3.80547083 9.56162917,4.23200417 C9.58283333,4.69356667 9.58709167,4.8317 9.58709167,6.00002917 C9.58709167,7.16835833 9.58283333,7.30652083 9.56162917,7.76805417 C9.54220417,8.19461667 9.47080417,8.42643333 9.41112917,8.58052083 C9.33162083,8.784775 9.23691667,8.93052083 9.08387917,9.08338333 C8.93087083,9.236275 8.78492083,9.331125 8.58066667,9.41063333 C8.42666667,9.47071667 8.19473333,9.54176667 7.7682,9.56113333 C7.30704583,9.58236667 7.16850417,9.58659583 6.000175,9.58659583 C4.83184583,9.58659583 4.69368333,9.58236667 4.232675,9.56113333 Z M4.19645,1.651495 C3.73071667,1.672705 3.41245,1.746555 3.13452083,1.854705 C2.846675,1.96639583 2.60301667,2.116225 2.35950417,2.35932917 C2.11602083,2.60243333 1.96657083,2.8465 1.85488,3.13434583 C1.74673,3.41245 1.67288,3.73054167 1.65167,4.196275 C1.63011,4.66276667 1.625175,4.81189583 1.625175,6 C1.625175,7.18810417 1.63011,7.33723333 1.65167,7.803725 C1.67288,8.26951667 1.74673,8.58755 1.85488,8.86565417 C1.96657083,9.153325 2.11605,9.39765417 2.35950417,9.64067083 C2.60295833,9.88365833 2.846675,10.0332833 3.13452083,10.1452833 C3.412975,10.2534333 3.73071667,10.3272833 4.19645,10.3485167 C4.663175,10.3697208 4.81207083,10.375 6.000175,10.375 C7.18827917,10.375 7.33740833,10.3700708 7.8039,10.3485167 C8.26969167,10.3272833 8.587725,10.2534333 8.86582917,10.1452833 C9.1535,10.0332833 9.39733333,9.883775 9.64084583,9.64067083 C9.88432917,9.39756667 10.0334583,9.153325 10.1454583,8.86565417 C10.2536083,8.58755 10.3278083,8.26945833 10.3486917,7.803725 C10.3698958,7.33688333 10.374825,7.18810417 10.374825,6 C10.374825,4.81189583 10.3698958,4.66276667 10.3486917,4.196275 C10.3274583,3.73048333 10.2536083,3.412275 10.1454583,3.13434583 C10.0334583,2.846675 9.88395,2.60284167 9.64084583,2.35932917 C9.39774167,2.11584583 9.1535,1.96639583 8.86617917,1.854705 C8.587725,1.746555 8.26963333,1.672355 7.80425,1.651495 C7.33775833,1.630285 7.18862917,1.625 6.000525,1.625 C4.81242083,1.625 4.663175,1.629935 4.19645,1.651495 Z" id="instagram" fill="#FFFFFF" fill-rule="nonzero"></path>
            <rect id="Rectangle" x="0" y="0" width="12" height="12"></rect>
        </g>
    </g>
</svg>