<?xml version="1.0" encoding="UTF-8"?>
<svg width="880px" height="620px" viewBox="0 0 880 620" version="1.1" xmlns="http://www.w3.org/2000/svg" xmlns:xlink="http://www.w3.org/1999/xlink">
    <title>A1</title>
    <g id="A1" stroke="#000000" stroke-width="8" fill="#000000" fill-rule="evenodd">
        <path d="M51.007473,240.534272 L51.007473,165.791772 C51.007473,152.184804 55.883591,140.542222 65.635826,130.864027 C75.388062,121.185831 87.119711,116.346733 100.830775,116.346733 C114.541838,116.346733 126.273487,121.185831 136.025723,130.864027 C145.777958,140.542222 150.654076,152.184804 150.654076,165.791772 L150.654076,165.791772 L150.654076,240.246801 L161.95122,240.246801 L161.95122,165.791772 C161.95122,149.118445 155.964699,134.840711 143.991657,122.95857 C132.018616,111.268076 117.631655,105.422829 100.830775,105.422829 C90.788869,105.422829 81.374582,107.722599 72.587915,112.322137 C63.801248,116.921676 56.607767,123.150217 51.007473,131.007762 L51.007473,131.007762 L51.007473,36.142281 L40,36.142281 L40,240.534272 L51.007473,240.534272 Z"></path>
        <path d="M420.487805,290.385977 L420.487805,279.486295 L414.778224,279.486295 C408.968474,279.486295 403.96007,277.478459 399.75301,273.462786 C395.54595,269.447114 393.442421,264.57094 393.442421,258.834265 L393.442421,258.834265 L393.442421,195.730841 C393.442421,189.994166 391.939899,184.687742 388.934856,179.811568 C385.929814,174.935394 381.822922,171.063139 376.614181,168.194801 L376.614181,168.194801 L371.505609,165.326464 L378.417207,161.023958 C388.434016,154.904838 393.442421,146.108603 393.442421,134.635253 L393.442421,134.635253 L393.442421,72.679164 C393.442421,67.133711 395.54595,62.353149 399.75301,58.337476 C403.96007,54.321804 408.968474,52.313968 414.778224,52.313968 L414.778224,52.313968 L420.487805,52.313968 L420.487805,41.127452 L414.778224,41.127452 C405.763096,41.127452 398.000069,44.234817 391.489143,50.449548 C384.978217,56.66428 381.722754,64.074151 381.722754,72.679164 L381.722754,72.679164 L381.722754,134.635253 C381.722754,142.09293 378.517375,147.829605 372.106617,151.845278 L372.106617,151.845278 L349.268293,166.186965 L370.9046,177.660315 C378.116703,181.675987 381.722754,187.699496 381.722754,195.730841 L381.722754,195.730841 L381.722754,258.834265 C381.722754,267.6305 384.978217,275.088178 391.489143,281.207298 C398.000069,287.326418 405.763096,290.385977 414.778224,290.385977 L414.778224,290.385977 L420.487805,290.385977 Z"></path>
        <path d="M461.588276,103.442083 L461.588276,135.086744 L462.048698,134.420174 C468.077129,125.798786 475.780382,118.8938 485.158457,113.705216 C494.776996,108.383592 505.300249,105.722779 516.728215,105.722779 C534.822496,105.722779 550.297868,112.137237 563.15433,124.966154 C576.010793,137.79507 582.439024,153.284799 582.439024,171.43534 C582.439024,189.585881 576.010793,205.07561 563.15433,217.904526 C550.297868,230.733442 534.822496,237.147901 516.728215,237.147901 C505.300249,237.147901 494.776996,234.487088 485.158457,229.165464 C475.539919,223.843839 467.683191,216.716663 461.588276,207.783936 L461.588276,207.783936 L461.588276,287.893392 L450.731707,287.893392 L450.731707,103.442083 L461.588276,103.442083 Z M516.585366,116.864655 C501.243634,116.864655 488.121147,122.229648 477.217904,132.959634 C466.314661,143.68962 460.863039,156.603585 460.863039,171.70153 C460.863039,186.799475 466.266417,199.760919 477.073171,210.58586 C488.072903,221.220891 501.243634,226.538406 516.585366,226.538406 C531.927097,226.538406 545.049585,221.173413 555.952828,210.443427 C566.856071,199.713441 572.307692,186.799475 572.307692,171.70153 C572.307692,156.603585 566.856071,143.68962 555.952828,132.959634 C545.049585,122.229648 531.927097,116.864655 516.585366,116.864655 Z"></path>
        <path d="M678.679435,108.427254 C696.773716,108.427254 712.249087,114.996649 725.10555,128.135439 C737.962013,141.274229 744.390244,157.089439 744.390244,175.581069 L744.390244,175.581069 L744.390244,181.128558 L623.825194,181.128558 L623.903702,181.835069 C625.545263,195.927617 631.47116,207.760335 641.681393,217.333224 C652.061796,227.065661 664.394476,231.931879 678.679435,231.931879 C695.440453,231.931879 709.249246,225.411147 720.105815,212.369681 L720.105815,212.369681 L723.819904,207.990084 L732.10518,215.289412 L728.39109,219.669009 L727.865404,220.298956 C721.870619,227.392432 714.61767,232.924588 706.106555,236.895422 C697.345114,240.983046 688.202741,243.026858 678.679435,243.026858 C661.347019,243.026858 646.395429,237.041409 633.824665,225.070511 C621.253902,213.099614 614.301889,198.452296 612.968626,181.128558 L612.968626,181.128558 L612.682927,181.128558 L612.682927,172.369365 L612.968626,170.03358 L613.028305,169.303213 C614.498835,152.299153 621.430955,137.943953 633.824665,126.237613 C646.395429,114.36404 661.347019,108.427254 678.679435,108.427254 Z M679.207786,120.67831 C664.755869,120.67831 652.243806,125.480979 641.671598,135.086317 C631.099389,144.691656 625.037343,156.506222 623.48546,170.530015 L623.48546,170.530015 L734.930113,170.530015 C733.572214,156.506222 727.558665,144.691656 716.889464,135.086317 C706.220263,125.480979 693.659704,120.67831 679.207786,120.67831 Z"></path>
        <path d="M774.490069,290.385977 C783.705533,290.385977 791.518644,287.326418 797.929402,281.207298 C804.34016,275.088178 807.545539,267.6305 807.545539,258.834265 L807.545539,258.834265 L807.545539,195.730841 C807.545539,187.699496 811.15159,181.675987 818.363692,177.660315 L818.363692,177.660315 L840,166.186965 L817.161675,151.845278 C810.750918,147.829605 807.545539,142.09293 807.545539,134.635253 L807.545539,134.635253 L807.545539,72.679164 C807.545539,64.074151 804.34016,56.66428 797.929402,50.449548 C791.518644,44.234817 783.705533,41.127452 774.490069,41.127452 L774.490069,41.127452 L768.780488,41.127452 L768.780488,52.313968 L774.490069,52.313968 C780.500154,52.313968 785.608727,54.321804 789.815787,58.337476 C794.022847,62.353149 796.126376,67.133711 796.126376,72.679164 L796.126376,72.679164 L796.126376,134.635253 C796.126376,146.108603 801.034613,154.904838 810.851086,161.023958 L810.851086,161.023958 L818.063188,165.326464 L812.954616,168.194801 C807.745875,171.063139 803.638983,174.935394 800.633941,179.811568 C797.628898,184.687742 796.126376,189.994166 796.126376,195.730841 L796.126376,195.730841 L796.126376,258.834265 C796.126376,264.57094 794.022847,269.447114 789.815787,273.462786 C785.608727,277.478459 780.500154,279.486295 774.490069,279.486295 L774.490069,279.486295 L768.780488,279.486295 L768.780488,290.385977 L774.490069,290.385977 Z"></path>
        <path d="M187.317073,105.934668 L198.173642,105.934668 L198.173642,173.625973 L198.194049,173.624546 L198.213639,174.748501 C198.720279,189.076673 204.039998,201.451004 214.172795,211.871492 C225.029364,222.64799 238.028676,228.036239 253.170732,228.036239 C268.312788,228.036239 281.264483,222.599881 292.025819,211.727164 C302.513259,201.131178 307.890441,188.433378 308.157365,173.633765 L308.167822,173.625973 L308.167822,105.934668 L319.02439,105.934668 L319.02439,228.324895 L318.987202,230.64488 C318.466569,246.776229 312.479282,260.628148 301.025343,272.200637 C289.571403,283.773126 275.861385,289.822382 259.895287,290.348404 L257.599069,290.385977 L256.456272,290.385977 L254.570658,290.351339 C251.980319,290.258969 249.085234,289.981859 245.885403,289.520009 C241.885615,288.942697 236.504947,287.739962 229.7434,285.911806 C222.981853,284.083651 216.363155,280.764104 209.887308,275.953168 C204.059044,271.623325 199.233586,266.280299 195.410931,259.924089 L194.173853,257.767827 L191.316862,252.860672 L201.030633,247.376204 L203.601926,252.28336 L204.722402,254.200217 C207.451425,258.599217 210.982488,262.482545 215.315592,265.850201 C220.267711,269.69895 224.838897,272.441184 229.029152,274.076902 C233.219406,275.712621 237.83821,276.963464 242.885562,277.829433 L246.978202,278.504888 C249.406645,278.885915 251.23512,279.128386 252.463626,279.232302 L253.027882,279.272714 C254.742077,279.368933 256.170573,279.417042 257.31337,279.417042 C271.407862,279.417042 283.407227,274.413668 293.311465,264.40692 C302.694427,254.926843 307.632828,243.633269 308.126668,230.526199 L308.167822,228.324895 L308.167822,209.273586 L306.607388,211.49664 C300.751217,219.508186 293.414634,225.983573 284.59764,230.922801 C274.979102,236.31105 264.551082,239.005175 253.313581,239.005175 C235.028834,239.005175 219.45823,232.51041 206.601767,219.520881 C194.564684,207.359213 188.162563,192.835885 187.395405,175.950898 L187.317073,173.625973 L187.317073,105.934668 Z"></path>
        <path d="M282.926829,399.40641 L282.926829,521.796637 L282.923452,522.499075 C282.761329,539.323793 276.762772,553.714895 264.927782,565.672379 C252.928416,577.795939 238.452992,583.857719 221.501508,583.857719 L221.501508,583.857719 L220.358711,583.857719 L219.781733,583.854336 C216.86894,583.820509 213.537644,583.532981 209.787842,582.99175 C205.788054,582.414438 200.407386,581.211704 193.645839,579.383548 C186.884292,577.555392 180.265594,574.235846 173.789747,569.424909 C167.313899,564.613973 162.076081,558.552192 158.076292,551.239569 L158.076292,551.239569 L155.219301,546.332413 L164.933072,540.847946 L167.504365,545.755101 L167.838667,546.351629 C170.663257,551.297784 174.456378,555.621222 179.218031,559.321942 C184.17015,563.170692 188.741336,565.912925 192.931591,567.548644 C197.121845,569.184362 201.740649,570.435206 206.788001,571.301174 C211.835353,572.167143 215.216126,572.648237 216.930321,572.744455 C218.644516,572.840674 220.073012,572.888784 221.215809,572.888784 C235.310301,572.888784 247.309666,567.885409 257.213904,557.878661 C267.118142,547.871913 272.070261,535.844572 272.070261,521.796637 L272.070261,521.796637 L272.070261,502.745328 L271.621147,503.403862 C265.591042,512.140821 257.88402,519.137714 248.500079,524.394543 C238.881541,529.782792 228.453521,532.476916 217.21602,532.476916 C198.931273,532.476916 183.360669,525.982152 170.504206,512.992623 C157.647744,500.003094 151.219512,484.319441 151.219512,465.941663 C151.219512,447.563885 157.647744,431.880232 170.504206,418.890703 C183.360669,405.901174 198.931273,399.40641 217.21602,399.40641 C228.453521,399.40641 238.881541,402.100534 248.500079,407.488783 C258.118618,412.877032 265.975345,420.189656 272.070261,429.426654 L272.070261,429.426654 L272.070261,399.40641 L282.926829,399.40641 Z M217.073171,409.376751 C201.731439,409.376751 188.608952,414.741744 177.705709,425.47173 C166.802466,436.201716 161.350844,449.115682 161.350844,464.213627 C161.350844,479.311572 166.754221,492.273015 177.560976,503.097957 C188.560708,513.732987 201.731439,519.050502 217.073171,519.050502 C232.414902,519.050502 245.537389,513.685509 256.440633,502.955523 C267.343876,492.225537 272.795497,479.311572 272.795497,464.213627 C272.795497,449.115682 267.343876,436.201716 256.440633,425.47173 C245.537389,414.741744 232.414902,409.376751 217.073171,409.376751 Z"></path>
        <path d="M323.259424,347.062119 C326.053215,347.062119 328.484848,346.155725 330.554324,344.342935 C332.623799,342.328725 333.658537,339.911673 333.658537,337.091778 C333.658537,334.271884 332.623799,331.905187 330.554324,329.991687 C328.484848,328.078187 326.053215,327.121437 323.259424,327.121437 C320.465632,327.121437 318.085735,328.078187 316.119734,329.991687 C314.153732,331.905187 313.170732,334.271884 313.170732,337.091778 C313.170732,339.911673 314.153732,342.27837 316.119734,344.19187 C318.085735,346.105369 320.465632,347.062119 323.259424,347.062119 Z"></path>
        <polygon points="327.804878 531.513429 327.804878 396.913825 318.04878 396.913825 318.04878 531.513429"></polygon>
        <path d="M427.465213,399.40641 C446.229653,399.40641 462.278186,405.975805 475.610814,419.114595 C488.943442,432.253385 495.609756,448.068595 495.609756,466.560225 L495.609756,466.560225 L495.609756,472.107714 L370.579334,472.107714 L370.658051,472.791854 C372.356608,486.894251 378.502881,498.734426 389.096873,508.31238 C399.861736,518.044817 412.651182,522.911036 427.465213,522.911036 C444.84701,522.911036 459.16724,516.390303 470.425903,503.348837 L470.425903,503.348837 L474.277551,498.969241 L482.869689,506.268568 L479.018041,510.648165 L478.472885,511.278112 C472.256071,518.371589 464.734494,523.903744 455.908153,527.874578 C446.822214,531.962202 437.341234,534.006014 427.465213,534.006014 C409.490856,534.006014 393.985503,528.020565 380.949156,516.049667 C367.912809,504.07877 360.703314,489.431452 359.320671,472.107714 L359.320671,472.107714 L359.02439,472.107714 L359.02439,463.348521 L359.320671,461.012736 L359.381653,460.292491 C360.904702,443.284006 368.093869,428.925432 380.949156,417.21677 C393.985503,405.343196 409.490856,399.40641 427.465213,399.40641 Z M427.026197,411.657466 C412.594104,411.657466 400.099204,416.460135 389.541498,426.065474 C378.983793,435.670812 372.930062,447.485378 371.380307,461.509172 L371.380307,461.509172 L482.672087,461.509172 C481.316051,447.485378 475.310751,435.670812 464.656185,426.065474 C454.00162,416.460135 441.45829,411.657466 427.026197,411.657466 Z"></path>
        <path d="M536.828055,531.513429 L536.828055,454.476634 C536.828055,441.684898 541.448853,430.706917 550.69045,421.542688 C559.932047,412.37846 571.050843,407.796346 584.046839,407.796346 C597.042835,407.796346 608.113498,412.37846 617.258828,421.542688 C626.404158,430.706917 630.976823,441.684898 630.976823,454.476634 L630.976823,454.476634 L630.976823,531.513429 L641.95122,531.513429 L641.95122,454.476634 C641.95122,438.630156 636.271488,425.074735 624.912025,413.810371 C613.552562,402.546007 599.8827,396.913825 583.902439,396.913825 C574.468309,396.913825 565.611779,399.061691 557.332848,403.357423 C549.053917,407.653155 542.218986,413.428528 536.828055,420.683542 L536.828055,420.683542 L536.828055,396.913825 L525.853659,396.913825 L525.853659,531.513429 L536.828055,531.513429 Z"></path>
        <path d="M677.405765,347.062119 C680.199557,347.062119 682.63119,346.155725 684.700665,344.342935 C686.77014,342.328725 687.804878,339.911673 687.804878,337.091778 C687.804878,334.271884 686.77014,331.905187 684.700665,329.991687 C682.63119,328.078187 680.199557,327.121437 677.405765,327.121437 C674.611973,327.121437 672.232077,328.078187 670.266075,329.991687 C668.300074,331.905187 667.317073,334.271884 667.317073,337.091778 C667.317073,339.911673 668.300074,342.27837 670.266075,344.19187 C672.232077,346.105369 674.611973,347.062119 677.405765,347.062119 Z"></path>
        <polygon points="682.926829 531.513429 682.926829 396.913825 673.170732 396.913825 673.170732 531.513429"></polygon>
        <path d="M783.868247,531.513429 C794.125826,531.513429 803.908518,529.080319 813.216321,524.214101 C822.524124,519.347882 830.312286,512.729825 836.580807,504.359929 L836.580807,504.359929 L839.715067,499.688359 L830.882152,493.264951 L827.747891,497.644548 C822.429147,504.846551 815.970671,510.442702 808.372464,514.433002 C800.774257,518.423301 792.606185,520.41845 783.868247,520.41845 C768.671833,520.41845 755.707393,514.919623 744.974926,503.92197 C734.242459,492.924316 728.876225,479.688201 728.876225,464.213627 C728.876225,448.739052 734.242459,435.502937 744.974926,424.505283 C755.707393,413.50763 768.671833,408.008803 783.868247,408.008803 C792.41623,408.008803 800.631791,410.052614 808.51493,414.140238 C816.39807,418.227862 822.904035,423.872675 828.032824,431.074678 L828.032824,431.074678 L831.167085,435.454275 L840,429.030867 L836.86574,424.359297 C830.597219,415.794752 822.761568,409.079371 813.358787,404.213152 C803.956006,399.346934 794.125826,396.913825 783.868247,396.913825 C765.632551,396.913825 750.103716,403.48322 737.281742,416.622009 C724.459767,429.760799 718.04878,445.624672 718.04878,464.213627 C718.04878,482.802581 724.459767,498.666454 737.281742,511.805244 C750.103716,524.944034 765.632551,531.513429 783.868247,531.513429 Z"></path>
    </g>
</svg>