<?xml version="1.0" encoding="UTF-8"?>
<svg width="81px" height="24px" viewBox="0 0 81 24" version="1.1" xmlns="http://www.w3.org/2000/svg" xmlns:xlink="http://www.w3.org/1999/xlink">
    <title>Group</title>
    <g id="Page-1" stroke="none" stroke-width="1" fill="none" fill-rule="evenodd">
        <g id="Side" transform="translate(-55.000000, -610.000000)">
            <g id="download-section" transform="translate(13.131727, 567.000000)">
                <g id="appstore-stripe" transform="translate(0.000000, 43.000000)">
                    <g id="Group" transform="translate(42.358776, 0.000000)">
                        <path d="M35.740925,12.6893625 C36.3881,12.6893625 36.92825,12.9448875 37.360625,13.4565375 C37.79375,13.9687875 38.010125,14.6422125 38.010125,15.47745 C38.010125,16.41045 37.75775,17.147925 37.25375,17.6893125 C36.801875,18.171225 36.241175,18.4119 35.571725,18.4119 C34.8491,18.4119 34.330025,18.1523625 34.0138625,17.6332875 L33.991025,17.6332875 L33.991025,20.52315 L32.7722,20.52315 L32.7722,14.6079375 C32.7722,14.0213625 32.75675,13.419375 32.7270125,12.801975 L33.7989125,12.801975 L33.866975,13.6714875 L33.8898125,13.6714875 C34.296275,13.0163625 34.91315,12.6893625 35.740925,12.6893625 Z M42.051125,12.6893625 C42.698,12.6893625 43.238,12.9448875 43.6715,13.4565375 C44.103125,13.9687875 44.319875,14.6422125 44.319875,15.47745 C44.319875,16.41045 44.0675,17.147925 43.56275,17.6893125 C43.111625,18.171225 42.551,18.4119 41.881625,18.4119 C41.159,18.4119 40.64,18.1523625 40.32425,17.6332875 L40.301375,17.6332875 L40.301375,20.52315 L39.082625,20.52315 L39.082625,14.6079375 C39.082625,14.0213625 39.06725,13.419375 39.03725,12.801975 L40.109375,12.801975 L40.17725,13.6714875 L40.200125,13.6714875 C40.60625,13.0163625 41.22275,12.6893625 42.051125,12.6893625 Z M58.823375,12.69 C59.6285,12.69 60.276125,12.9569625 60.76475,13.4914875 C61.232375,14.01 61.465625,14.67945 61.465625,15.4998 C61.465625,16.3430625 61.2245,17.03535 60.743,17.5767375 C60.23825,18.1341375 59.568125,18.411975 58.733,18.411975 C57.92825,18.411975 57.287375,18.1450125 56.80925,17.61105 C56.3315,17.0770875 56.092625,16.4030625 56.092625,15.5907 C56.092625,14.7406125 56.33825,14.0443125 56.83175,13.502925 C57.32375,12.960975 57.98825,12.69 58.823375,12.69 Z M49.354625,10.5684375 C50.046875,10.5684375 50.622125,10.6890375 51.081125,10.92975 L50.77625,11.9233125 C50.347625,11.6900625 49.86275,11.5734375 49.3205,11.5734375 C48.8915,11.5734375 48.556625,11.679225 48.316625,11.8896 C48.113375,12.0776625 48.01175,12.3069375 48.01175,12.578475 C48.01175,12.8791875 48.127625,13.12785 48.360875,13.323375 C48.564125,13.5040125 48.93275,13.6995375 49.467875,13.910475 C50.12225,14.174025 50.603375,14.4821625 50.912375,14.8354875 C51.220625,15.18765 51.374375,15.6283875 51.374375,16.1543625 C51.374375,16.8015 51.14975,17.328 50.698625,17.7345 C50.202875,18.1786875 49.512875,18.4005 48.626375,18.4005 C47.80775,18.4005 47.1515,18.2427 46.654625,17.926575 L46.937,16.9107 C47.472125,17.23425 48.059375,17.396625 48.69875,17.396625 C49.158125,17.396625 49.515125,17.2925625 49.772,17.0856375 C50.027375,16.878675 50.154875,16.6008375 50.154875,16.2544125 C50.154875,15.945675 50.049875,15.685575 49.83875,15.4746375 C49.629125,15.2636625 49.2785,15.067575 48.789125,14.886375 C47.457125,14.389575 46.791875,13.6618125 46.791875,12.7048125 C46.791875,12.0793875 47.025125,11.566575 47.492,11.1675375 C47.957375,10.7679375 48.578375,10.5684375 49.354625,10.5684375 Z M54.060875,11.4351 L54.060875,12.80085 L55.404125,12.80085 L55.404125,13.716675 L54.060875,13.716675 L54.060875,16.38015 C54.060875,17.057625 54.2975,17.3960625 54.771875,17.3960625 C54.98975,17.3960625 55.1705,17.3771625 55.313375,17.3394375 L55.347125,18.2650125 C55.10675,18.35475 54.790625,18.3999375 54.399125,18.3999375 C53.917625,18.3999375 53.5415,18.2530125 53.27,17.959725 C52.999625,17.665875 52.8635,17.1730875 52.8635,16.4807625 L52.8635,13.71555 L52.06325,13.71555 L52.06325,12.80085 L52.8635,12.80085 L52.8635,11.7964125 L54.060875,11.4351 Z M68.59925,12.6790875 C69.38975,12.6790875 69.98825,12.972375 70.39475,13.5589125 C70.7165,14.02485 70.8785,14.6011125 70.8785,15.2854125 C70.8785,15.503775 70.86425,15.6878625 70.833875,15.8382375 L67.17725,15.8382375 C67.1915,16.3801875 67.368125,16.7946375 67.707875,17.0805 C68.016125,17.336025 68.414375,17.4640875 68.90375,17.4640875 C69.44525,17.4640875 69.939125,17.3777625 70.383125,17.20455 L70.574375,18.050625 C70.055,18.2770125 69.44225,18.3896625 68.735,18.3896625 C67.8845,18.3896625 67.216625,18.1392375 66.730625,17.639025 C66.246125,17.1388125 66.003125,16.467075 66.003125,15.6244125 C66.003125,14.7972 66.228875,14.1082875 66.681125,13.5589125 C67.154375,12.972375 67.794125,12.6790875 68.59925,12.6790875 Z M29.2507625,10.6798875 L31.7118875,18.28785 L30.4135625,18.28785 L29.7024125,16.05315 L27.23045,16.05315 L26.552975,18.28785 L25.289,18.28785 L27.7380875,10.6798875 L29.2507625,10.6798875 Z M65.122625,12.6893625 C65.235125,12.6893625 65.337125,12.69735 65.4275,12.7116375 L65.4275,13.873875 C65.30675,13.8516 65.178125,13.8401625 65.043125,13.8401625 C64.6145,13.8401625 64.283,14.0019375 64.04975,14.3260875 C63.846875,14.6119125 63.744875,14.973225 63.744875,15.409425 L63.744875,18.28785 L62.5265,18.28785 L62.538125,14.5296 C62.538125,13.8973125 62.52275,13.32165 62.492375,12.8025375 L63.554,12.8025375 L63.598625,13.8521625 L63.632375,13.8521625 C63.761,13.4914125 63.963875,13.2010125 64.24175,12.9832125 C64.51325,12.787125 64.8065,12.6893625 65.122625,12.6893625 Z M58.779875,13.5812625 C58.290125,13.5812625 57.91775,13.8001875 57.662375,14.23755 C57.443375,14.5999875 57.335375,15.0407625 57.335375,15.562125 C57.335375,16.068075 57.443375,16.5019875 57.662375,16.8632625 C57.926,17.3011875 58.293875,17.5195875 58.769,17.5195875 C59.234375,17.5195875 59.599625,17.2966125 59.86325,16.8518625 C60.087875,16.483125 60.201125,16.0446375 60.201125,15.53925 C60.201125,15.0333375 60.093125,14.599425 59.874125,14.23755 C59.61875,13.799625 59.253125,13.5812625 58.779875,13.5812625 Z M41.655875,13.6594875 C41.354375,13.6594875 41.08175,13.7601 40.836875,13.958475 C40.592375,14.158575 40.433,14.4198375 40.358,14.743425 C40.320875,14.894325 40.301375,15.0178125 40.301375,15.1150125 L40.301375,16.0297125 C40.301375,16.42875 40.423625,16.7654625 40.667375,17.04045 C40.911875,17.3148375 41.229875,17.4526125 41.622125,17.4526125 C42.081125,17.4526125 42.4385,17.2753875 42.693875,16.9221 C42.95,16.5682125 43.077875,16.10175 43.077875,15.5220375 C43.077875,14.988075 42.9575,14.5479 42.716,14.2014375 C42.45275,13.8401625 42.099875,13.6594875 41.655875,13.6594875 Z M35.3459,13.6594875 C35.0451875,13.6594875 34.771925,13.7601 34.5278375,13.958475 C34.28315,14.158575 34.1230625,14.4198375 34.048175,14.743425 C34.01045,14.894325 33.9915875,15.0178125 33.9915875,15.1150125 L33.9915875,16.0297125 C33.9915875,16.42875 34.1139125,16.7654625 34.3586,17.04045 C34.6032875,17.3154 34.9211375,17.4526125 35.3121875,17.4526125 C35.771225,17.4526125 36.128525,17.2753875 36.3840875,16.9221 C36.64025,16.5682125 36.768125,16.10175 36.768125,15.5220375 C36.768125,14.988075 36.648125,14.5479 36.4069625,14.2014375 C36.1434125,13.8401625 35.789525,13.6594875 35.3459,13.6594875 Z M28.461275,11.6957625 L28.4384,11.6957625 C28.3635125,12.01935 28.242875,12.49725 28.0770875,13.128975 L27.4454,15.115575 L29.488025,15.115575 L28.8448625,13.128975 C28.7768375,12.926025 28.649375,12.4480875 28.461275,11.6957625 Z M68.508125,13.5240375 C68.109875,13.5240375 67.7855,13.6892625 67.538,14.0208375 C67.335125,14.2843875 67.214375,14.6005125 67.17725,14.9686875 L69.716,14.9686875 C69.72425,14.607975 69.64475,14.295825 69.479375,14.032275 C69.268625,13.693275 68.94425,13.5240375 68.508125,13.5240375 Z M31.136975,5.2072125 C31.5325625,5.2072125 31.8504125,5.3381625 32.091125,5.60055 C32.3198,5.8555125 32.4347,6.1848 32.4347,6.5872875 C32.4347,7.0017375 32.31635,7.3413375 32.0796875,7.6077375 C31.83155,7.8815625 31.5028625,8.0182125 31.0923875,8.0182125 C30.6967625,8.0182125 30.3817625,7.8873 30.146825,7.6243125 C29.9124125,7.3618875 29.795225,7.0309125 29.795225,6.631875 C29.795225,6.2145375 29.9158625,5.8720875 30.1582625,5.60625 C30.400625,5.34045 30.7265,5.2072125 31.136975,5.2072125 Z M43.913,5.2072125 C44.309,5.2072125 44.62625,5.3381625 44.86775,5.60055 C45.0965,5.8555125 45.21125,6.1848 45.21125,6.5872875 C45.21125,7.0017375 45.09275,7.3413375 44.856125,7.6077375 C44.60825,7.8815625 44.279,8.0182125 43.86875,8.0182125 C43.47275,8.0182125 43.15775,7.8873 42.923375,7.6243125 C42.689,7.3618875 42.571625,7.0309125 42.571625,6.631875 C42.571625,6.2145375 42.692375,5.8720875 42.934625,5.60625 C43.17725,5.34045 43.503125,5.2072125 43.913,5.2072125 Z M55.34225,5.2072125 C55.737125,5.2072125 56.0555,5.3381625 56.2955,5.60055 C56.52425,5.8555125 56.639375,6.1848 56.639375,6.5872875 C56.639375,7.0017375 56.520875,7.3413375 56.28425,7.6077375 C56.036,7.8815625 55.707875,8.0182125 55.296875,8.0182125 C54.902,8.0182125 54.587,7.8873 54.3515,7.6243125 C54.117125,7.3618875 53.99975,7.0309125 53.99975,6.631875 C53.99975,6.2145375 54.1205,5.8720875 54.36275,5.60625 C54.605,5.34045 54.930875,5.2072125 55.34225,5.2072125 Z M47.01425,5.2072125 C47.7185,5.2072125 48.07175,5.5788375 48.07175,6.3220125 L48.07175,7.31445 C48.07175,7.5837 48.084875,7.7980875 48.11075,7.9570125 L47.572625,7.9570125 L47.528375,7.6465875 L47.5115,7.6465875 C47.327375,7.894125 47.06525,8.0182125 46.724375,8.0182125 C46.470125,8.0182125 46.26425,7.9364625 46.109375,7.7740875 C45.96875,7.6266 45.89825,7.443075 45.89825,7.225275 C45.89825,6.8959875 46.0355,6.645 46.3115,6.471225 C46.587125,6.2974125 46.974875,6.21225 47.474,6.2162625 L47.474,6.1659375 C47.474,5.810925 47.287625,5.6337 46.914125,5.6337 C46.64825,5.6337 46.413875,5.7006 46.21175,5.8332375 L46.089875,5.4399 C46.340375,5.2849875 46.649375,5.2072125 47.01425,5.2072125 Z M51.494,4.02555 L51.494,7.230975 C51.494,7.4934 51.50075,7.7352 51.515,7.9570125 L50.98325,7.9570125 L50.9555,7.5242625 L50.938625,7.5242625 C50.769125,7.85355 50.479625,8.0182125 50.073125,8.0182125 C49.748375,8.0182125 49.478,7.8907125 49.263875,7.63575 C49.049375,7.38075 48.9425,7.049775 48.9425,6.6433125 C48.9425,6.2071125 49.058375,5.8537875 49.291625,5.583975 C49.51775,5.332425 49.794125,5.20665 50.12375,5.20665 C50.485625,5.20665 50.73875,5.3284125 50.88275,5.5725375 L50.894375,5.5725375 L50.894375,4.02555 L51.494,4.02555 Z M63.23225,4.5909375 L63.23225,5.26155 L63.891875,5.26155 L63.891875,5.710875 L63.232625,5.710875 L63.232625,7.0200375 C63.232625,7.3527375 63.35,7.519125 63.582125,7.519125 C63.68975,7.519125 63.778625,7.509975 63.849125,7.4911125 L63.8645,7.945575 C63.746,7.9902 63.59075,8.012475 63.399125,8.012475 C63.1625,8.012475 62.978375,7.9404375 62.84525,7.7963625 C62.711375,7.652325 62.645,7.409925 62.645,7.0697625 L62.645,5.710875 L62.25125,5.710875 L62.25125,5.2621125 L62.645,5.2621125 L62.645,4.7681625 L63.23225,4.5909375 Z M69.215,5.202075 C69.60275,5.202075 69.897125,5.34615 70.09625,5.6342625 C70.25675,5.8629375 70.33625,6.1459125 70.33625,6.4820625 C70.33625,6.5895375 70.328375,6.679875 70.314125,6.7536375 L68.517125,6.7536375 C68.525,7.0200375 68.610875,7.2229875 68.777375,7.3636125 C68.92925,7.4893875 69.125375,7.552275 69.365375,7.552275 C69.63125,7.552275 69.873875,7.509975 70.092125,7.424775 L70.185875,7.84095 C69.9305,7.951875 69.62975,8.0073375 69.281375,8.0073375 C68.864,8.0073375 68.5355,7.8844125 68.29775,7.6386 C68.0585,7.39275 67.940375,7.0629 67.940375,6.6490125 C67.940375,6.24255 68.050625,5.9041125 68.273,5.6342625 C68.505125,5.34615 68.819,5.202075 69.215,5.202075 Z M27.0447875,4.191375 C27.6993875,4.191375 28.1927375,4.333725 28.525475,4.618425 C28.8981875,4.94025 29.085125,5.4004875 29.085125,5.9995875 C29.085125,6.6724875 28.8833375,7.1789625 28.4802875,7.519125 C28.106975,7.833 27.5764625,7.9902 26.8893125,7.9902 C26.5485875,7.9902 26.257025,7.97535 26.0129,7.9456125 L26.0129,4.2691125 C26.33135,4.2176625 26.6743625,4.191375 27.0447875,4.191375 Z M33.6369875,5.262075 L33.941675,6.543225 C34.0154375,6.846225 34.0760375,7.1349 34.1246375,7.4082 L34.135475,7.4082 C34.1800625,7.1829375 34.253825,6.89595 34.35785,6.548925 L34.7403125,5.2626375 L35.228525,5.2626375 L35.594975,6.5215125 C35.6835875,6.8284875 35.755625,7.1240625 35.8110875,7.4087625 L35.8276625,7.4087625 C35.868275,7.1314875 35.9294375,6.8359125 36.0105875,6.5215125 L36.337625,5.2626375 L36.926,5.2626375 L36.926,5.262075 L36.082625,7.9570125 L35.5338125,7.9570125 L35.1845375,6.78675 C35.095925,6.494625 35.0238875,6.204225 34.9678625,5.916075 L34.9569875,5.916075 C34.904975,6.2122125 34.8329375,6.50205 34.7403125,6.78675 L34.3692875,7.9570125 L33.8142125,7.9570125 L33.021275,5.262075 L33.6369875,5.262075 Z M39.09425,5.2054875 C39.345875,5.2054875 39.555125,5.286675 39.72125,5.4496125 C39.92825,5.6491125 40.03175,5.946975 40.03175,6.3425625 L40.03175,7.9570125 L39.4325,7.9570125 L39.4325,6.4134375 C39.4325,5.937825 39.252125,5.7 38.8895,5.7 C38.71175,5.7 38.568125,5.765175 38.45675,5.8960875 C38.3465,6.027 38.29025,6.18135 38.29025,6.3580125 L38.29025,7.9564125 L37.691375,7.9564125 L37.691375,6.0321375 C37.691375,5.795475 37.683875,5.5387875 37.669625,5.26095 L38.196125,5.26095 L38.22425,5.6822625 L38.24075,5.6822625 C38.3105,5.55135 38.414375,5.4433125 38.55125,5.3569875 C38.713625,5.256375 38.895125,5.2054875 39.09425,5.2054875 Z M41.684,4.02555 L41.684,7.9570125 L41.0855,7.9570125 L41.0855,4.02555 L41.684,4.02555 Z M58.9235,5.2054875 C59.174375,5.2054875 59.383625,5.286675 59.550125,5.4496125 C59.7575,5.6491125 59.860625,5.946975 59.860625,6.3425625 L59.860625,7.9570125 L59.262125,7.9570125 L59.262125,6.4134375 C59.262125,5.937825 59.081375,5.7 58.718375,5.7 C58.540625,5.7 58.397,5.765175 58.286,5.8960875 C58.175375,6.027 58.119875,6.18135 58.119875,6.3580125 L58.119875,7.9564125 L57.519875,7.9564125 L57.519875,6.0321375 C57.519875,5.795475 57.513125,5.5387875 57.498875,5.26095 L58.025,5.26095 L58.05275,5.6822625 L58.069625,5.6822625 C58.13975,5.55135 58.243625,5.4433125 58.37975,5.3569875 C58.542875,5.256375 58.724,5.2054875 58.9235,5.2054875 Z M65.3225,4.02555 L65.3225,5.6497125 L65.334125,5.6497125 C65.52275,5.3541375 65.793125,5.20665 66.143375,5.20665 C66.391625,5.20665 66.59675,5.2878375 66.759875,5.450775 C66.96275,5.653725 67.064375,5.9555625 67.064375,6.3546 L67.064375,7.9570125 L66.46475,7.9570125 L66.46475,6.4249125 C66.46475,5.9418375 66.284,5.7 65.922125,5.7 C65.64425,5.7 65.4545,5.8400625 65.350625,6.1201875 C65.332625,6.1791 65.3225,6.2511375 65.3225,6.3357375 L65.3225,7.95645 L64.724,7.95645 L64.724,4.02555 L65.3225,4.02555 Z M55.31975,5.644575 C55.07975,5.644575 54.89675,5.75205 54.770375,5.967 C54.66275,6.1447875 54.609875,6.3614625 54.609875,6.6175875 C54.609875,6.86625 54.6635,7.079475 54.770375,7.2573 C54.900125,7.47225 55.080875,7.579725 55.314125,7.579725 C55.542875,7.579725 55.722875,7.470525 55.851875,7.2515625 C55.9625,7.0703625 56.018375,6.855375 56.018375,6.6067125 C56.018375,6.3580125 55.96475,6.1447875 55.857875,5.967 C55.7315,5.75205 55.553,5.644575 55.31975,5.644575 Z M31.1152625,5.644575 C30.87455,5.644575 30.691625,5.75205 30.56585,5.967 C30.458375,6.1447875 30.4052,6.3614625 30.4052,6.6175875 C30.4052,6.86625 30.4589375,7.079475 30.56585,7.2573 C30.6956375,7.47225 30.876275,7.579725 31.109525,7.579725 C31.3382,7.579725 31.5177125,7.470525 31.6469,7.2515625 C31.757825,7.0703625 31.8132875,6.855375 31.8132875,6.6067125 C31.8132875,6.3580125 31.75955,6.1447875 31.6526375,5.967 C31.5268625,5.75205 31.3479125,5.644575 31.1152625,5.644575 Z M43.891625,5.644575 C43.6505,5.644575 43.4675,5.75205 43.34225,5.967 C43.235,6.1447875 43.18175,6.3614625 43.18175,6.6175875 C43.18175,6.86625 43.235375,7.079475 43.34225,7.2573 C43.472,7.47225 43.65275,7.579725 43.886,7.579725 C44.11475,7.579725 44.293625,7.470525 44.423,7.2515625 C44.534375,7.0703625 44.589125,6.855375 44.589125,6.6067125 C44.589125,6.3580125 44.5355,6.1447875 44.428625,5.967 C44.303375,5.75205 44.12375,5.644575 43.891625,5.644575 Z M47.488625,6.6153 C46.827875,6.6038625 46.4975,6.7850625 46.4975,7.158375 C46.4975,7.2990375 46.535375,7.404225 46.61225,7.4745375 C46.6895,7.54485 46.78775,7.579725 46.905125,7.579725 C47.03675,7.579725 47.159375,7.5379875 47.2715,7.455075 C47.384,7.3716375 47.453375,7.26585 47.478875,7.1361 C47.48525,7.106925 47.488625,7.0714875 47.488625,7.0309125 L47.488625,6.6153 Z M50.26025,5.6725875 C50.03675,5.6725875 49.861625,5.7612 49.733,5.9389875 C49.6055,6.116775 49.541,6.343725 49.541,6.621 C49.541,6.8874 49.602125,7.1035125 49.725125,7.2698625 C49.854875,7.4470875 50.03,7.5357 50.248625,7.5357 C50.4455,7.5357 50.602625,7.4619375 50.72225,7.3138875 C50.83775,7.1772375 50.894375,7.0126125 50.894375,6.8205 L50.894375,6.371175 C50.894375,6.2934375 50.888375,6.23055 50.8775,6.1825125 C50.84375,6.0384375 50.771375,5.917275 50.661125,5.8195125 C50.549375,5.72175 50.415125,5.6725875 50.26025,5.6725875 Z M27.09455,4.6630125 C26.9058875,4.6630125 26.7452375,4.675575 26.6120375,4.7018625 L26.6120375,7.49685 C26.6857625,7.5082875 26.8206875,7.513425 27.016775,7.513425 C27.4752875,7.513425 27.8291375,7.385925 28.0784,7.1309625 C28.3276625,6.876 28.4534375,6.5044125 28.4534375,6.0161625 C28.4534375,5.5799625 28.3379375,5.2455375 28.106975,5.0122875 C27.8760125,4.7796375 27.5387375,4.6630125 27.09455,4.6630125 Z M69.171875,5.617125 C68.976125,5.617125 68.81675,5.698275 68.694875,5.8612125 C68.5955,5.991 68.536625,6.1459125 68.517125,6.32715 L69.764375,6.32715 C69.76925,6.1493625 69.7295,5.9961375 69.6485,5.86695 C69.544625,5.7005625 69.386,5.617125 69.171875,5.617125 Z" id="app-store" fill="#FFFFFF" fill-rule="nonzero"></path>
                        <rect id="Rectangle" x="0" y="0" width="80" height="24"></rect>
                        <g id="apple" transform="translate(8.356964, 3.831750)" fill="#FFFFFF" fill-rule="nonzero">
                            <path d="M9.91076126,7.75605 C9.89418626,5.913525 11.4194238,5.017125 11.4891738,4.9753875 C10.6253613,3.71595 9.28649876,3.5439 8.81598626,3.530175 C7.69147376,3.411825 6.60071126,4.2030375 6.02789876,4.2030375 C5.44361126,4.2030375 4.56153626,3.5416125 3.61079876,3.5610375 C2.38739876,3.5799 1.24289876,4.2882 0.615186264,5.38815 C-0.680251236,7.6308375 0.285898764,10.9266 1.52703626,12.739425 C2.14788626,13.6272375 2.87332376,14.61855 3.82289876,14.583675 C4.75188626,14.54535 5.09891126,13.9914 6.21997376,13.9914 C7.33076126,13.9914 7.65659876,14.583675 8.62503626,14.5613625 C9.62204876,14.54535 10.2497613,13.6695375 10.8488988,12.7737375 C11.5663488,11.7561375 11.8544988,10.75395 11.8659363,10.7025 C11.8424988,10.6945125 9.92962376,9.9644625 9.91076126,7.75605 Z" id="Path"></path>
                            <path d="M8.08139876,2.3376 C8.58104876,1.712775 8.92289876,0.8626875 8.82798626,-2.46469511e-14 C8.10483626,0.032025 7.20041126,0.5002125 6.67961126,1.11135 C6.21884876,1.6498875 5.80721126,2.5325625 5.91356126,3.3626625 C6.72592376,3.4232625 7.55999876,2.95275 8.08139876,2.3376 Z" id="Path"></path>
                        </g>
                    </g>
                </g>
            </g>
        </g>
    </g>
</svg>