<?xml version="1.0" encoding="UTF-8"?>
<svg width="81px" height="24px" viewBox="0 0 81 24" version="1.1" xmlns="http://www.w3.org/2000/svg" xmlns:xlink="http://www.w3.org/1999/xlink">
    <title>Group</title>
    <g id="Page-1" stroke="none" stroke-width="1" fill="none" fill-rule="evenodd">
        <g id="Side" transform="translate(-204.000000, -610.000000)">
            <g id="download-section" transform="translate(13.131727, 567.000000)">
                <g id="googleplay-stripe" transform="translate(191.377770, 43.000000)">
                    <g id="Group" transform="translate(-0.000000, 0.000000)">
                        <path d="M40.884,13.05 C40.38,13.0523625 39.888375,13.2039375 39.470625,13.4855625 C39.052875,13.7671875 38.72775,14.1663 38.5365,14.632425 C38.345625,15.0985875 38.296875,15.61095 38.396625,16.1047875 C38.496375,16.5986625 38.740125,17.0518875 39.097125,17.4073125 C39.454125,17.7627375 39.908625,18.004425 40.402875,18.10185 C40.897125,18.199275 41.409375,18.1480875 41.87475,17.9547 C42.33975,17.76135 42.73725,17.4345375 43.017,17.0154375 C43.29675,16.596375 43.446,16.1038125 43.446,15.6 C43.450875,15.2627625 43.387875,14.928 43.26075,14.6155875 C43.133625,14.3032125 42.944625,14.0196375 42.70575,13.7817 C42.466875,13.5437625 42.18225,13.356375 41.869125,13.230675 C41.556375,13.104975 41.221125,13.0435125 40.884,13.05 Z M40.884,17.148 C40.57425,17.169675 40.264875,17.0976375 39.99675,16.941225 C39.72825,16.78485 39.513,16.5513375 39.379125,16.2710625 C39.24525,15.9907875 39.19875,15.676725 39.245625,15.369675 C39.292875,15.0626625 39.430875,14.7768375 39.64275,14.5494375 C39.85425,14.322 40.129125,14.1634875 40.432125,14.09445 C40.73475,14.02545 41.051625,14.04915 41.34075,14.1624375 C41.629875,14.2757625 41.8785,14.4734625 42.053625,14.7298125 C42.229125,14.9862 42.32325,15.2893875 42.324,15.6 C42.33375,15.7968 42.30375,15.9935625 42.23625,16.1786625 C42.16875,16.363725 42.064875,16.5334125 41.930625,16.6777125 C41.796375,16.821975 41.634375,16.937925 41.45475,17.0187 C41.275125,17.099475 41.080875,17.143425 40.884,17.148 Z M35.298,13.05 C34.793925,13.0512 34.3015125,13.2017625 33.8829375,13.482675 C33.4644,13.7635875 33.1384875,14.16225 32.9464125,14.6283 C32.7543,15.09435 32.70465,15.6069 32.803725,16.10115 C32.9028,16.5954 33.1461375,17.0491875 33.5029875,17.4052125 C33.859875,17.7612375 34.314225,18.003525 34.8087375,18.1014375 C35.3032125,18.19935 35.8156125,18.1485 36.2812125,17.9553 C36.7468125,17.7621375 37.144725,17.4352875 37.4246625,17.016075 C37.70475,16.5968625 37.854,16.104075 37.854,15.6 C37.858875,15.2627625 37.795875,14.928 37.66875,14.6155875 C37.541625,14.3032125 37.3528125,14.0196375 37.11375,13.7817 C36.874725,13.5437625 36.59025,13.356375 36.277275,13.230675 C35.9643,13.104975 35.6292,13.0435125 35.292,13.05 L35.298,13.05 Z M35.298,17.148 C34.9879875,17.170875 34.678275,17.099925 34.409175,16.9443375 C34.140075,16.78875 33.9240375,16.555725 33.789225,16.2756375 C33.654375,15.9955875 33.6070125,15.681375 33.6532125,15.3739875 C33.69945,15.0666 33.83715,14.78025 34.0483875,14.5522125 C34.259625,14.324175 34.53465,14.165025 34.8376125,14.0954625 C35.140575,14.0259 35.45745,14.04915 35.747025,14.1622125 C36.0365625,14.275275 36.285375,14.4728625 36.4610625,14.729325 C36.63675,14.98575 36.731175,15.2891625 36.732,15.6 C36.741675,15.7968 36.711825,15.9935625 36.64425,16.1786625 C36.576675,16.363725 36.4726875,16.5334125 36.338475,16.6777125 C36.2042625,16.821975 36.042525,16.937925 35.862825,17.0187 C35.6830875,17.099475 35.4889875,17.143425 35.292,17.148 L35.298,17.148 Z M28.644,13.836 L28.644,14.916 L31.236,14.916 C31.19535,15.4246875 30.983925,15.9046875 30.636,16.278 C30.3766875,16.54215 30.06495,16.749075 29.72085,16.8854625 C29.3767125,17.0218875 29.0078625,17.0847375 28.638,17.07 C27.8741625,17.07 27.1416375,16.76655 26.601525,16.226475 C26.06145,15.6863625 25.758,14.9538375 25.758,14.19 C25.758,13.4261625 26.06145,12.6936375 26.601525,12.153525 C27.1416375,11.6134125 27.8741625,11.31 28.638,11.31 C29.3686875,11.298075 30.07425,11.5764375 30.6,12.084 L31.362,11.322 C31.0071,10.9626 30.58365,10.678125 30.116775,10.4854125 C29.6499,10.2926625 29.1490875,10.1956125 28.644,10.2 C28.1106,10.179225 27.5785125,10.266375 27.079575,10.4561625 C26.580675,10.6459875 26.1252,10.93455 25.74045,11.3046 C25.3557375,11.67465 25.0496625,12.1185375 24.8406,12.6097125 C24.6315375,13.1008875 24.5237625,13.6291875 24.5237625,14.163 C24.5237625,14.6968125 24.6315375,15.2251125 24.8406,15.7162875 C25.0496625,16.207425 25.3557375,16.65135 25.74045,17.0214 C26.1252,17.39145 26.580675,17.6800125 27.079575,17.8698 C27.5785125,18.059625 28.1106,18.1467375 28.644,18.126 C29.1575625,18.1492125 29.67015,18.0621375 30.1472625,17.8706625 C30.624375,17.679225 31.05495,17.387775 31.41,17.016 C32.0386125,16.3253625 32.3742375,15.41745 32.346,14.484 C32.34795,14.2566 32.32785,14.0295375 32.286,13.806 L28.644,13.836 Z M55.83,14.676 C55.673625,14.21565 55.38075,13.81365 54.99075,13.5232875 C54.60075,13.232925 54.132,13.0678875 53.646,13.0499955 C53.317875,13.0493625 52.993125,13.1160375 52.691625,13.2459 C52.390125,13.3758 52.118625,13.5661125 51.893625,13.8051 C51.668625,14.044125 51.495,14.3266875 51.383625,14.635425 C51.27225,14.9441625 51.225375,15.2724375 51.246,15.6 C51.238875,15.935325 51.29925,16.2687375 51.423375,16.5802125 C51.547875,16.8916875 51.733875,17.174925 51.970125,17.4129375 C52.20675,17.65095 52.488375,17.8389 52.79925,17.9655375 C53.10975,18.092175 53.44275,18.1549125 53.778,18.15 C54.197625,18.15225 54.61125,18.0504 54.982125,17.853525 C55.352625,17.6566875 55.66875,17.370975 55.902,17.022 L55.032,16.422 C54.90225,16.63845 54.7185,16.8175125 54.498375,16.9416375 C54.278625,17.065725 54.030375,17.1306375 53.778,17.13 C53.518125,17.1399 53.26125,17.0713875 53.04075,16.93335 C52.82025,16.7953125 52.646625,16.594125 52.542,16.356 L55.956,14.946 L55.83,14.676 Z M52.35,15.528 C52.338,15.3424125 52.36275,15.1562625 52.4235,14.9804625 C52.48425,14.8046625 52.5795,14.6427375 52.70325,14.5041375 C52.827375,14.365575 52.97775,14.25315 53.14575,14.1734625 C53.314125,14.0937375 53.496375,14.0483625 53.682,14.04 C53.8755,14.02725 54.068625,14.0716125 54.237,14.1676125 C54.40575,14.2636125 54.54225,14.4070125 54.63,14.58 L52.35,15.528 Z M49.578,18 L50.7,18 L50.7,10.5 L49.578,10.5 L49.578,18 Z M47.742,13.62 L47.7,13.62 C47.530875,13.430925 47.323875,13.2797625 47.092125,13.1763375 C46.860375,13.07295 46.6095,13.0196625 46.356,13.0199984 C45.7005,13.0518 45.082125,13.3346625 44.629125,13.8099375 C44.1765,14.28525 43.92375,14.916525 43.92375,15.573 C43.92375,16.229475 44.1765,16.86075 44.629125,17.3360625 C45.082125,17.8113375 45.7005,18.0942 46.356,18.126 C46.61025,18.130275 46.86225,18.07875 47.09475,17.9751 C47.326875,17.87145 47.5335,17.71815 47.7,17.526 L47.736,17.526 L47.736,17.892 C47.736,18.87 47.214,19.392 46.374,19.392 C46.09425,19.3854375 45.82275,19.2958125 45.594,19.13445 C45.36525,18.973125 45.190125,18.747375 45.09,18.486 L44.112,18.894 C44.296125,19.341825 44.609625,19.7244375 45.01275,19.99275 C45.415875,20.2610625 45.889875,20.4028875 46.374,20.4000432 C47.688,20.4000432 48.774,19.626 48.774,17.742 L48.774,13.2 L47.742,13.2 L47.742,13.62 Z M46.458,17.148 C46.071,17.113875 45.710625,16.93605 45.4485,16.6495125 C45.186,16.362975 45.0405,15.9885375 45.0405,15.6 C45.0405,15.2114625 45.186,14.837025 45.4485,14.5504875 C45.710625,14.26395 46.071,14.0860875 46.458,14.052 C46.65,14.061825 46.837875,14.1100125 47.01075,14.1936 C47.184,14.277225 47.3385,14.3946375 47.46525,14.5389 C47.592375,14.6831625 47.689125,14.85135 47.749875,15.0336 C47.811,15.2158125 47.834625,15.4084125 47.82,15.6 C47.8365,15.7924125 47.813625,15.9861375 47.752875,16.169475 C47.692125,16.3528125 47.595,16.521975 47.467125,16.66665 C47.33925,16.8113625 47.18325,16.928625 47.008875,17.01135 C46.8345,17.0941125 46.645125,17.140575 46.452,17.148 L46.458,17.148 Z M61.086,10.5 L58.404,10.5 L58.404,18 L59.526,18 L59.526,15.156 L61.092,15.156 C61.411875,15.17895 61.732875,15.135825 62.035125,15.02925 C62.33775,14.9226375 62.614875,14.7549 62.84925,14.5365 C63.084,14.3180625 63.271125,14.05365 63.399375,13.7596875 C63.52725,13.4657625 63.59325,13.1485875 63.59325,12.828 C63.59325,12.5074125 63.52725,12.1902375 63.399375,11.8963125 C63.271125,11.60235 63.084,11.3379375 62.84925,11.1195 C62.614875,10.9010625 62.33775,10.7333625 62.035125,10.62675 C61.732875,10.520175 61.411875,10.4770125 61.092,10.5 L61.086,10.5 Z M61.086,14.1 L59.52,14.1 L59.52,11.544 L61.11,11.544 C61.45125,11.544 61.778625,11.6796 62.020125,11.92095 C62.26125,12.1623 62.397,12.489675 62.397,12.831 C62.397,13.172325 62.26125,13.4997 62.020125,13.74105 C61.778625,13.9824 61.45125,14.118 61.11,14.118 L61.086,14.1 Z M68.004,13.02 C67.595625,12.9955875 67.18875,13.091025 66.834,13.2946125 C66.478875,13.4982375 66.19125,13.8010875 66.006,14.166 L67.002,14.58 C67.10025,14.3989875 67.24875,14.2504875 67.429875,14.1524625 C67.611,14.054475 67.816875,14.0112 68.022,14.028 C68.1645,14.01135 68.308875,14.0232375 68.4465,14.0629875 C68.5845,14.1027375 68.71275,14.1694875 68.8245,14.2594125 C68.93625,14.3493375 69.028875,14.4606 69.097125,14.5867125 C69.165375,14.7128625 69.20775,14.8513125 69.222,14.994 L69.222,15.072 C68.861625,14.8812 68.459625,14.782275 68.052,14.784 C66.978,14.784 65.892,15.384 65.892,16.47 C65.9025,16.7015625 65.9595,16.9286625 66.05925,17.1378375 C66.159375,17.3470125 66.3,17.5340625 66.473625,17.6878875 C66.646875,17.8417125 66.849375,17.9592 67.069125,18.0334125 C67.2885,18.1076625 67.521,18.1371 67.752,18.12 C68.034375,18.1402875 68.3175,18.08415 68.570625,17.9574375 C68.824125,17.8307625 69.038625,17.6382 69.192,17.4 L69.228,17.4 L69.228,18 L70.308,18 L70.308,15.114 C70.308,13.8 69.312,13.038 68.034,13.038 L68.004,13.02 Z M67.866,17.13 C67.5,17.13 66.99,16.944 66.99,16.494 C66.99,15.894 67.626,15.696 68.19,15.696 C68.54625,15.6871875 68.89875,15.774225 69.21,15.948 C69.1725,16.272825 69.01875,16.5731625 68.77725,16.7937 C68.53575,17.0142 68.223,17.1400125 67.896,17.148 L67.866,17.13 Z M74.244,13.2 L72.96,16.452 L72.924,16.452 L71.592,13.2 L70.392,13.2 L72.39,17.748 L71.25,20.274 L72.42,20.274 L75.492,13.2 L74.244,13.2 Z M64.158,18 L65.28,18 L65.28,10.5 L64.158,10.5 L64.158,18 Z" id="google-play" fill="#FFFFFF" fill-rule="nonzero"></path>
                        <path d="M26.6451375,4.0935 C26.9065125,4.0927125 27.1652625,4.145325 27.4056,4.248075 C27.58611,4.320975 27.750804,4.427235 27.8912148,4.5608646 L28.02855,4.70835 L27.6247125,5.1121875 L27.5826375,5.0620875 C27.4688625,4.9267875 27.3252,4.8197625 27.1629375,4.749525 C27.0412688,4.69684687 26.9116477,4.6659375 26.7799752,4.65784102 L26.644275,4.6576125 C26.4649125,4.6567125 26.287275,4.6919625 26.1219,4.7614125 C25.9565625,4.8308625 25.8069375,4.932975 25.682025,5.0616375 C25.5571125,5.1903375 25.4594625,5.3428875 25.394925,5.5102125 C25.34655,5.63573437 25.3175391,5.76758437 25.3086674,5.90128535 L25.3066125,6.038325 C25.3028625,6.30615 25.378425,6.5691 25.523925,6.7939875 C25.669425,7.018875 25.8783,7.19565 26.12415,7.3019625 C26.37,7.4083125 26.6418,7.4394375 26.90535,7.391475 C27.1683,7.3435875 27.411225,7.21905 27.6036375,7.0335375 C27.763725,6.8595 27.861525,6.6379125 27.8827875,6.4035 L26.584575,6.4035 L26.584575,5.8515 L28.44075,5.8515 L28.4496,5.9008875 C28.466175,5.9930625 28.4745,6.086475 28.474575,6.1801125 C28.484925,6.40785 28.449,6.635325 28.3689375,6.848775 C28.2887625,7.062675 28.1659125,7.2580125 28.0078875,7.4230125 C27.8319,7.605825 27.6192375,7.7496 27.3839625,7.844775 C27.1489875,7.939875 26.8966125,7.9843875 26.6432625,7.9755 C26.2597125,7.9723125 25.88565,7.8561375 25.5678,7.6414125 C25.2497625,7.426575 25.00215,7.1226375 24.8560875,6.7676625 C24.710025,6.412725 24.671925,6.022575 24.746625,5.646075 C24.821325,5.26965 25.0054125,4.9236375 25.2758625,4.65135 C25.453875,4.469625 25.667325,4.326375 25.9029375,4.2304125 C26.1383625,4.134525 26.3909625,4.08795 26.6451375,4.0935 Z M42.8085,4.0899 C43.062,4.0899 43.3125,4.1400375 43.5465,4.2373875 C43.722,4.31042812 43.8852656,4.40895 44.0312344,4.52948848 L44.172,4.6581375 C44.524875,5.0295 44.72175,5.5222125 44.72175,6.0345 C44.72175,6.48986667 44.5661944,6.92973704 44.2837912,7.28268395 L44.170875,7.4120625 C43.809,7.772025 43.31925,7.9741125 42.8085,7.9741125 C42.3548333,7.9741125 41.917463,7.81443843 41.5714506,7.52611579 L41.445,7.4107125 C41.093625,7.038675 40.8975,6.5462625 40.8975,6.0345 C40.8975,5.57956667 41.052463,5.13998148 41.3336811,4.78661852 L41.446125,4.6572 C41.62425,4.477425 41.836875,4.334775 42.0705,4.2373875 C42.3045,4.1400375 42.555375,4.0899 42.8085,4.0899 Z M36.448575,4.1775 L36.448575,7.8975 L35.866575,7.8975 L35.866575,4.1775 L36.448575,4.1775 Z M31.222575,4.1775 L31.222575,4.7415 L29.602575,4.7415 L29.602575,5.7615 L31.078575,5.7615 L31.078575,6.3135 L29.602575,6.3135 L29.602575,7.3335 L31.222575,7.3335 L31.222575,7.8975 L29.002575,7.8975 L29.002575,4.1775 L31.222575,4.1775 Z M34.222575,4.1775 L34.222575,4.7415 L33.190575,4.7415 L33.190575,7.8975 L32.608575,7.8975 L32.608575,4.7415 L31.600575,4.7415 L31.600575,4.1775 L34.222575,4.1775 Z M39.5025,4.1775 L39.5025,4.7415 L38.5005,4.7415 L38.5005,7.8975 L37.9185,7.8975 L37.9185,4.7415 L36.910575,4.7415 L36.910575,4.1775 L39.5025,4.1775 Z M45.907875,4.1775 L47.5665,6.8303625 L47.5665,4.1775 L48.1485,4.1775 L48.1485,7.8975 L47.575125,7.8975 L45.8385,5.11305 L45.8385,7.8975 L45.2505,7.8975 L45.2505,4.1775 L45.907875,4.1775 Z M42.8085,4.6615875 C42.45825,4.6615875 42.12225,4.8001125 41.874,5.0469375 C41.628375,5.318325 41.49225,5.67135 41.49225,6.0375 C41.49225,6.4036125 41.628375,6.7566375 41.874,7.0280625 C42.12225,7.27485 42.45825,7.4134125 42.8085,7.4134125 C43.15875,7.4134125 43.49475,7.27485 43.743,7.0280625 C43.989,6.7566375 44.12475,6.4036125 44.12475,6.0375 C44.12475,5.67135 43.989,5.318325 43.743,5.0469375 C43.49475,4.8001125 43.15875,4.6615875 42.8085,4.6615875 Z" id="get-it-on" fill="#FFFFFF" fill-rule="nonzero"></path>
                        <g id="play" transform="translate(5.985825, 4.304100)" fill="#FFFFFF" fill-rule="nonzero">
                            <path d="M0.3113625,15.3149625 L7.6617375,7.6912125 L0.31755,0.0811125 C0.1213875,0.1996125 -1.687539e-14,0.473925 -1.687539e-14,0.833025 L-1.687539e-14,14.5703625 C0.002625,14.929425 0.119625,15.1837125 0.3113625,15.3149625 Z" id="Path"></path>
                            <path d="M7.9250625,7.48065 L10.1145,5.2095 L1.1983875,0.138525 C1.0482375,0.0480375 0.877725,0.0002625 0.704025,9.81437154e-14 L7.9242,7.47975 L7.9250625,7.48065 Z" id="Path"></path>
                            <path d="M7.9249875,7.9026375 L0.681975,15.4152375 C0.8637375,15.41835 1.0428,15.36915 1.1992125,15.2730375 L10.1329125,10.1884125 L7.9249875,7.9026375 Z" id="Path"></path>
                            <path d="M13.344525,7.0495875 L10.3774875,5.358975 L8.1282375,7.6921125 L10.394175,10.039875 L13.3436625,8.3538 C13.97085,7.9956 13.9708125,7.40595 13.344525,7.0495875 Z" id="Path"></path>
                        </g>
                        <rect id="Rectangle" x="0" y="0" width="80" height="24"></rect>
                    </g>
                </g>
            </g>
        </g>
    </g>
</svg>